<svg xmlns="http://www.w3.org/2000/svg" xmlns:xlink="http://www.w3.org/1999/xlink" width="1920" zoomAndPan="magnify" viewBox="0 0 1440 809.999993" height="1080" preserveAspectRatio="xMidYMid meet" version="1.0"><defs><clipPath id="53e82dbc05"><path d="M 604.5 289.5 L 835 289.5 L 835 520 L 604.5 520 Z M 604.5 289.5 " clip-rule="nonzero"/></clipPath></defs><g clip-path="url(#53e82dbc05)"><path fill="#ffffff" d="M 822.160156 519.875 C 829.179688 519.875 834.871094 514.179688 834.871094 507.160156 L 834.871094 302.214844 C 834.871094 295.191406 829.179688 289.5 822.160156 289.5 L 617.214844 289.5 C 610.191406 289.5 604.5 295.191406 604.5 302.214844 L 604.5 507.160156 C 604.5 514.179688 610.191406 519.875 617.214844 519.875 Z M 822.160156 519.875 " fill-opacity="1" fill-rule="nonzero"/></g><path fill="#000000" d="M 763.453125 519.875 L 763.453125 430.660156 L 793.398438 430.660156 L 797.882812 395.894531 L 763.453125 395.894531 L 763.453125 373.695312 C 763.453125 363.628906 766.246094 356.769531 780.683594 356.769531 L 799.09375 356.761719 L 799.09375 325.664062 C 795.910156 325.242188 784.980469 324.292969 772.265625 324.292969 C 745.722656 324.292969 727.550781 340.496094 727.550781 370.253906 L 727.550781 395.894531 L 697.527344 395.894531 L 697.527344 430.660156 L 727.550781 430.660156 L 727.550781 519.875 Z M 763.453125 519.875 " fill-opacity="1" fill-rule="nonzero"/></svg>